<?xml version="1.0" encoding="UTF-8" standalone="no"?>
<!-- Created with Inkscape (http://www.inkscape.org/) -->

<svg
   width="50.000061"
   height="50.000481"
   viewBox="0 0 50.000061 50.000481"
   version="1.1"
   id="svg5"
   inkscape:version="1.1.1 (3bf5ae0d25, 2021-09-20)"
   sodipodi:docname="global-icon.svg"
   xmlns:inkscape="http://www.inkscape.org/namespaces/inkscape"
   xmlns:sodipodi="http://sodipodi.sourceforge.net/DTD/sodipodi-0.dtd"
   xmlns="http://www.w3.org/2000/svg"
   xmlns:svg="http://www.w3.org/2000/svg">
  <sodipodi:namedview
     id="namedview7"
     pagecolor="#3c3c3c"
     bordercolor="#666666"
     borderopacity="1.0"
     inkscape:pageshadow="2"
     inkscape:pageopacity="0"
     inkscape:pagecheckerboard="true"
     inkscape:document-units="px"
     showgrid="false"
     inkscape:snap-bbox="true"
     inkscape:bbox-paths="true"
     inkscape:bbox-nodes="true"
     inkscape:snap-bbox-edge-midpoints="true"
     inkscape:snap-bbox-midpoints="true"
     inkscape:object-paths="true"
     inkscape:snap-intersection-paths="true"
     inkscape:snap-smooth-nodes="true"
     inkscape:snap-midpoints="true"
     inkscape:snap-object-midpoints="true"
     inkscape:snap-center="true"
     inkscape:snap-text-baseline="true"
     inkscape:snap-page="true"
     inkscape:zoom="1.3489583"
     inkscape:cx="51.891892"
     inkscape:cy="96.370656"
     inkscape:window-width="1366"
     inkscape:window-height="745"
     inkscape:window-x="-8"
     inkscape:window-y="-8"
     inkscape:window-maximized="1"
     inkscape:current-layer="layer1"
     fit-margin-top="0"
     fit-margin-left="0"
     fit-margin-right="0"
     fit-margin-bottom="0" />
  <defs
     id="defs2" />
  <g
     inkscape:label="Capa 1"
     inkscape:groupmode="layer"
     id="layer1"
     transform="translate(460.65534,-261.47042)">
    <path
       style="color:#000000;fill:#ffffff;stroke-width:1.64715;-inkscape-stroke:none"
       d="m -435.65539,261.47042 c -13.78762,-1.2e-4 -25.00007,11.21234 -24.99995,24.99997 0.002,13.77853 11.20178,24.98104 24.97743,24.99351 0.008,5e-5 0.0148,0.007 0.0226,0.007 0.008,0 0.0148,-0.007 0.0226,-0.007 13.77566,-0.0132 24.97565,-11.21496 24.97743,-24.99351 1.3e-4,-13.78764 -11.21233,-25.0001 -24.99995,-24.99997 z m 0,3.29429 c 0.68213,2e-5 1.43023,0.33372 2.30665,1.28041 0.87643,0.94668 1.77915,2.47114 2.54471,4.43957 0.64662,1.66259 1.13469,3.77594 1.55708,5.98056 h -12.81686 c 0.42239,-2.20462 0.91044,-4.31797 1.55706,-5.98056 0.76558,-1.96843 1.66828,-3.49289 2.54471,-4.43957 0.87645,-0.94669 1.62453,-1.28039 2.30665,-1.28041 z m -5.79718,0.88149 c -0.7515,1.12596 -1.5488,2.15959 -2.12649,3.64496 -0.80461,2.06876 -1.41201,4.53107 -1.87878,7.17409 h -9.15904 c 2.75574,-5.20271 7.37422,-9.21214 13.16431,-10.81905 z m 11.59436,0 c 5.79096,1.60656 10.40828,5.61575 13.16431,10.81905 h -9.15904 c -0.46675,-2.64302 -1.07419,-5.10533 -1.87877,-7.17409 -0.57768,-1.48537 -1.375,-2.519 -2.1265,-3.64496 z m -26.34147,14.11335 h 10.38153 c -0.24464,2.171 -0.518,4.3228 -0.51795,6.71084 7e-5,2.38666 0.27346,4.53777 0.51795,6.70761 h -10.38153 c -0.69185,-2.12314 -1.16107,-4.35056 -1.16137,-6.70761 -1e-5,-2.35903 0.46872,-4.58609 1.16137,-6.71084 z m 13.67903,0 h 13.73052 c 0.25933,2.14773 0.52121,4.31012 0.52117,6.71084 -8e-5,2.39933 -0.26201,4.56101 -0.52117,6.70761 h -13.73052 c -0.25916,-2.14658 -0.52109,-4.30828 -0.52116,-6.70761 -4e-5,-2.40072 0.26184,-4.56311 0.52116,-6.71084 z m 17.02803,0 h 10.38153 c 0.69266,2.12475 1.16139,4.35181 1.16137,6.71084 -3.1e-4,2.35705 -0.46952,4.58447 -1.16137,6.70761 h -10.38153 c 0.24448,-2.16984 0.51787,-4.32095 0.51796,-6.70761 3e-5,-2.38805 -0.27333,-4.53984 -0.51796,-6.71084 z m -29.12426,16.71274 h 9.15904 c 0.46688,2.64402 1.07384,5.10798 1.87878,7.17731 0.57794,1.48581 1.37461,2.51885 2.12649,3.64496 -5.79122,-1.60689 -10.40854,-5.61827 -13.16431,-10.82227 z m 12.55307,0 h 12.81686 c -0.42251,2.20568 -0.91015,4.32063 -1.55708,5.98377 -0.76555,1.96813 -1.66836,3.49309 -2.54471,4.43959 -0.87394,0.94391 -1.61966,1.27535 -2.30021,1.27718 -0.002,0 -0.005,0 -0.007,0 -0.002,0 -0.005,0 -0.007,0 -0.68056,-0.002 -1.42624,-0.33325 -2.30022,-1.27718 -0.87635,-0.94652 -1.77915,-2.47146 -2.54471,-4.43959 -0.64693,-1.66314 -1.13454,-3.77811 -1.55706,-5.98377 z m 16.21087,0 h 9.15904 c -2.75577,5.204 -7.37307,9.21538 -13.16431,10.82227 0.75188,-1.12611 1.54857,-2.15915 2.1265,-3.64496 0.80491,-2.06933 1.41192,-4.53329 1.87877,-7.17731 z"
       id="path1494-3-5-9" />
  </g>
</svg>
