<?xml version="1.0" encoding="UTF-8" standalone="no"?>
<!-- Created with Inkscape (http://www.inkscape.org/) -->

<svg
   width="205.46941"
   height="204.90604"
   viewBox="0 0 205.46941 204.90604"
   version="1.1"
   id="svg5"
   inkscape:version="1.1.1 (3bf5ae0d25, 2021-09-20)"
   sodipodi:docname="Icon.svg"
   xmlns:inkscape="http://www.inkscape.org/namespaces/inkscape"
   xmlns:sodipodi="http://sodipodi.sourceforge.net/DTD/sodipodi-0.dtd"
   xmlns="http://www.w3.org/2000/svg"
   xmlns:svg="http://www.w3.org/2000/svg">
  <sodipodi:namedview
     id="namedview7"
     pagecolor="#3c3c3c"
     bordercolor="#666666"
     borderopacity="1.0"
     inkscape:pageshadow="2"
     inkscape:pageopacity="0"
     inkscape:pagecheckerboard="true"
     inkscape:document-units="px"
     showgrid="false"
     inkscape:snap-bbox="true"
     inkscape:bbox-paths="true"
     inkscape:bbox-nodes="true"
     inkscape:snap-bbox-edge-midpoints="true"
     inkscape:snap-bbox-midpoints="true"
     inkscape:object-paths="true"
     inkscape:snap-intersection-paths="true"
     inkscape:snap-smooth-nodes="true"
     inkscape:snap-midpoints="true"
     inkscape:snap-object-midpoints="true"
     inkscape:snap-center="true"
     inkscape:snap-text-baseline="true"
     inkscape:snap-page="true"
     inkscape:zoom="0.67447917"
     inkscape:cx="-47.444015"
     inkscape:cy="191.25869"
     inkscape:window-width="1366"
     inkscape:window-height="745"
     inkscape:window-x="-8"
     inkscape:window-y="-8"
     inkscape:window-maximized="1"
     inkscape:current-layer="path1190-7"
     fit-margin-top="0"
     fit-margin-left="0"
     fit-margin-right="0"
     fit-margin-bottom="0" />
  <defs
     id="defs2" />
  <g
     inkscape:label="Capa 1"
     inkscape:groupmode="layer"
     id="layer1"
     transform="translate(-825.40404,-472.02539)">
    <g
       id="path1190-7">
      <path
         style="color:#000000;fill:#ffffff;stroke-width:5.7;stroke-linecap:round;-inkscape-stroke:none"
         d="m 910.433,672.91708 c -45.6856,-8.71294 -79.2795,-46.6701 -82.0007,-92.65124 -2.1289,-35.97158 14.8136,-69.69861 45.007,-89.59461 8.9514,-5.89856 17.952,-9.8898 29.6521,-13.14908 8.3981,-2.33943 11.2979,-2.6464 25,-2.6464 13.7556,0 16.5918,0.30281 25.201,2.6905 34.3727,9.53303 61.0349,35.40127 70.7076,68.60186 10.3212,35.42699 0.473,73.30746 -25.7835,99.17408 -12.9213,12.72945 -28.2365,21.4645 -45.7167,26.07459 -10.2172,2.69461 -31.7734,3.46341 -42.0668,1.5003 z m 33.7774,-5.05135 c 16.0179,-2.79908 30.0851,-9.09627 42.8264,-19.17134 47.893,-37.87084 47.893,-110.85736 0,-148.7282 -34.7218,-27.45586 -83.169,-27.45586 -117.8908,0 -47.9173,37.89 -47.8941,110.85648 0.047,148.76548 21.2356,16.79177 48.5512,23.75895 75.0173,19.13406 z m -38.619,-36.16577 c -12.1,-7.47214 -23.9498,-14.77459 -26.3328,-16.22768 -22.6423,-13.8064 -29.822,-18.38569 -30.7356,-19.60347 -1.6335,-2.1773 -1.8253,-20.67487 -0.2354,-22.69517 0.7171,-0.91115 9.6231,-6.86324 19.7912,-13.22686 16.5981,-10.38777 18.642,-11.41286 20,-10.03044 1.353,1.37729 1.2297,1.77059 -1.1686,3.72687 -1.4747,1.20289 -9.2167,6.23708 -17.2045,11.18708 -7.9878,4.95 -14.5362,9.225 -14.552,9.5 -0.016,0.275 3.9011,2.89321 8.7044,5.81825 4.8033,2.92503 20.8634,12.93753 35.689,22.25 14.8257,9.31246 27.7039,16.93175 28.6183,16.93175 0.9145,0 7.0094,-3.44556 13.5443,-7.6568 10.6259,-6.84753 22.9584,-14.51911 50.615,-31.48559 4.8033,-2.94669 8.7369,-5.58261 8.7414,-5.85761 0,-0.275 -3.2505,-2.50363 -7.2333,-4.95252 -13.7435,-8.45042 -26.7414,-17.19938 -26.7414,-17.99976 0,-0.44156 0.598,-1.29914 1.3289,-1.90573 1.0219,-0.84809 5.5848,1.57389 19.75,10.48337 10.1316,6.37245 19.0078,12.32616 19.7249,13.23046 1.5902,2.00546 1.3983,20.50519 -0.2354,22.6827 -0.5876,0.78326 -6.9184,4.99925 -14.0684,9.36885 -7.15,4.36961 -15.475,9.49685 -18.5,11.39387 -14.0085,8.78491 -45.4193,27.91897 -46.4027,28.26641 -0.6035,0.21324 -10.9973,-5.72585 -23.0973,-13.19798 z m 20.3822,-0.6432 -0.094,-6.27354 -7.1441,-4.62173 c -6.1809,-3.99866 -22.7525,-14.35967 -56.7523,-35.48304 -4.7346,-2.94149 -8.8971,-5.34816 -9.25,-5.34816 -0.3529,0 -0.6417,3.06447 -0.6417,6.80994 v 6.80993 l 17.25,10.68578 c 43.051,26.66859 54.3337,33.49933 55.4881,33.59343 0.8724,0.0711 1.2104,-1.75233 1.1441,-6.17261 z m 28.2825,-7.31628 c 12.2844,-7.47439 24.5853,-15.06864 27.3353,-16.87611 2.75,-1.80747 8.9375,-5.66165 13.75,-8.56484 l 8.75,-5.27852 v -6.95235 c 0,-8.15146 0.6935,-8.13283 -11.4373,-0.30718 -4.7478,3.06285 -8.8119,5.56881 -9.0314,5.56881 -0.4256,0 -34.2373,21.11282 -46.1753,28.833 l -7.144,4.61993 -0.094,6.27354 c -0.052,3.45044 0.3121,6.27353 0.8087,6.27353 0.4966,0 10.9538,-6.11541 23.2382,-13.58981 z m -43.6647,-37.78556 -16,-10.17572 -0.27,-20.64209 -0.2701,-20.6421 3.2549,-2.33236 c 7.2783,-5.21556 30.2069,-18.89231 31.2194,-18.62221 0.5977,0.15942 8.3944,4.77848 17.3262,10.26459 l 16.2396,9.97473 -0.01,21.02527 -0.01,21.02526 -13.6832,8.5 c -7.5258,4.675 -14.4503,8.80597 -15.3878,9.17992 -0.9374,0.37396 -2.002,1.16146 -2.3658,1.75 -1.3013,2.10563 -4.2633,0.73048 -20.0433,-9.30529 z m 33.75,-5.05842 12.75,-7.75468 v -18.28969 -18.28969 l -13.9261,-8.61608 c -7.6594,-4.73884 -14.4427,-8.61607 -15.0739,-8.61607 -0.6312,0 -7.4145,3.87723 -15.0739,8.61607 l -13.9261,8.61608 v 18.31153 18.31153 l 10.5699,6.57239 c 5.8134,3.61482 10.7873,6.5724 11.053,6.5724 0.2658,0 2.1232,1.11437 4.1275,2.47637 3.0715,2.08715 3.8884,2.26955 5.197,1.16045 0.8539,-0.72376 7.2901,-4.80553 14.3026,-9.07061 z m -18.4825,-2.24666 c -0.1279,-3.20075 -0.2404,-9.59533 -0.25,-14.21016 l -0.017,-8.39061 -11.2427,-6.9387 c -9.9198,-6.12219 -11.1242,-7.16032 -10.2348,-8.82215 1.2894,-2.40925 2.3095,-2.01324 13.4423,5.21858 4.9307,3.20292 9.6557,5.81845 10.5,5.81229 0.8444,-0.006 5.7919,-2.70616 10.9944,-6 9.7099,-6.14752 12.4139,-7.06501 13.3824,-4.54093 0.39,1.0162 -2.7832,3.50431 -10.643,8.3453 l -11.1986,6.89742 v 13.9047 c 0,13.65835 -0.04,13.91037 -2.25,14.22426 -2.0907,0.29693 -2.2664,-0.0924 -2.4825,-5.5 z"
         id="path1150" />
      <path
         style="color:#000000;fill:#ffffff;stroke-linecap:round;-inkscape-stroke:none"
         d="m 928.0918,472.02539 c -13.74466,0 -17.26625,0.38431 -25.76563,2.75195 -11.91551,3.31929 -21.26398,7.45717 -30.45508,13.51368 -31.01999,20.44068 -48.47099,55.17594 -46.2832,92.14257 2.79746,47.26964 37.38133,86.33309 84.31055,95.28321 11.14714,2.12593 32.28441,1.36766 43.32812,-1.54493 17.94164,-4.73178 33.73125,-13.7367 46.99024,-26.79882 26.9936,-26.59281 37.1295,-65.58379 26.5195,-102.00196 -9.9549,-34.16917 -37.39522,-60.76434 -72.68161,-70.55078 -8.70473,-2.41418 -12.16548,-2.79492 -25.96289,-2.79492 z m 0,10.18359 c 20.1613,0 40.32271,6.66428 57.17773,19.99219 46.49547,36.76579 46.49547,107.49203 0,144.25781 -12.3923,9.79911 -25.96296,15.87412 -41.54297,18.59766 l -0.006,0.002 h -0.002 c -25.66041,4.4841 -52.15408,-2.27037 -72.75781,-18.5625 -46.54575,-36.80563 -46.56742,-107.50939 -0.0469,-144.29492 16.85502,-13.32791 37.01644,-19.99219 57.17774,-19.99219 z m 1.16797,28.57813 c -1.07864,-0.28774 -1.31481,-0.0626 -1.57618,0.002 -0.26136,0.0646 -0.43721,0.13005 -0.61718,0.19922 -0.35994,0.13835 -0.70932,0.29714 -1.11914,0.49609 -0.81965,0.39792 -1.85138,0.94702 -3.07813,1.62305 -2.45351,1.35207 -5.66078,3.20996 -9.06445,5.24024 -6.80735,4.06054 -14.32603,8.75194 -18.15821,11.49804 l -4.46484,3.19922 0.21875,16.70313 c -0.0377,-0.0894 -0.0478,-0.22116 -0.0898,-0.29883 -0.39033,-0.72167 -0.79829,-1.12117 -1.19922,-1.5293 -0.71335,-0.72618 -2.35751,-1.44824 -3.67969,-1.3164 -1.32217,0.13183 -2.41124,0.61251 -3.91602,1.36718 -3.00954,1.50936 -7.64131,4.36113 -15.94921,9.56055 -5.10558,3.19528 -9.89171,6.28574 -13.51172,8.70508 -1.81001,1.20967 -3.32459,2.24951 -4.46289,3.0664 -0.56916,0.40845 -1.04241,0.75881 -1.43164,1.06641 -0.38923,0.3076 -0.60145,0.39316 -1.11133,1.04102 -0.86089,1.09394 -0.88807,1.78538 -1.06641,2.6582 -0.17834,0.87282 -0.30232,1.85378 -0.39844,2.94922 -0.19223,2.19087 -0.26575,4.82577 -0.23828,7.47461 0.0275,2.64883 0.15714,5.29289 0.39453,7.5 0.1187,1.10355 0.2611,2.09359 0.45508,2.97265 0.19399,0.87906 0.2714,1.579 1.04883,2.61524 0.7892,1.05196 1.4148,1.38726 2.63867,2.25195 1.22387,0.86469 2.93935,1.9979 5.32813,3.52149 4.77755,3.04717 12.23805,7.64633 23.56445,14.55273 2.34491,1.42986 14.21984,8.74752 26.31836,16.21875 6.07318,3.75038 11.71553,7.11544 15.94336,9.53125 2.11391,1.20791 3.86896,2.17579 5.18359,2.85352 0.65732,0.33886 1.19574,0.60299 1.67578,0.80859 0.24003,0.1028 0.45658,0.19201 0.74805,0.2793 0.29147,0.0873 0.37112,0.56175 1.99414,-0.0117 0.43747,-0.15456 0.42943,-0.18503 0.55664,-0.25196 0.12722,-0.0669 0.26083,-0.14031 0.41797,-0.22851 0.31429,-0.17641 0.71844,-0.40959 1.2168,-0.70117 0.99671,-0.58318 2.36371,-1.39775 4.01953,-2.39063 3.31163,-1.98575 7.77151,-4.68553 12.63867,-7.65039 9.73433,-5.92971 21.08969,-12.90937 28.11719,-17.31641 2.98929,-1.87462 11.32919,-7.01133 18.47265,-11.37695 3.60365,-2.2023 6.99584,-4.3637 9.58784,-6.08984 1.296,-0.86307 2.3891,-1.6139 3.2305,-2.22656 0.4207,-0.30634 0.7765,-0.57731 1.0859,-0.83008 0.3094,-0.25278 0.5147,-0.35572 0.9571,-0.94532 0.7762,-1.03532 0.8529,-1.73466 1.0468,-2.61328 0.194,-0.8791 0.3383,-1.8691 0.4571,-2.97265 0.2374,-2.20711 0.3651,-4.85179 0.3925,-7.5 0.027,-2.64822 -0.046,-5.28147 -0.2382,-7.47071 -0.096,-1.09461 -0.218,-2.07322 -0.3965,-2.94531 -0.1786,-0.87209 -0.2022,-1.5628 -1.0723,-2.66015 -0.5059,-0.63798 -0.7162,-0.72702 -1.1035,-1.03321 -0.3873,-0.30619 -0.8587,-0.65466 -1.4258,-1.0625 -1.1341,-0.81568 -2.6455,-1.85659 -4.4492,-3.0664 -3.60732,-2.41963 -8.37597,-5.51145 -13.46286,-8.71094 -7.10081,-4.4662 -11.7955,-7.3132 -14.98438,-9.00586 -1.59443,-0.84633 -2.79159,-1.40931 -3.91015,-1.75781 -0.55928,-0.17425 -1.10238,-0.30776 -1.7832,-0.31446 -0.68083,-0.007 -1.6249,0.16276 -2.41016,0.81446 -0.57942,0.48087 -1.05126,0.99902 -1.45508,1.57812 -0.0705,0.10111 -0.1378,0.21958 -0.21094,0.31836 l 0.008,-16.99023 -17.59766,-10.8086 c -4.47707,-2.74991 -8.66902,-5.28273 -11.82813,-7.15429 -1.57955,-0.93578 -2.8985,-1.70478 -3.88085,-2.26172 -0.49118,-0.27847 -0.89577,-0.50274 -1.22657,-0.67774 -0.33079,-0.175 -0.16348,-0.23338 -1.14843,-0.49609 z m -1.16797,11.63867 c 0.0921,0.0464 0.12751,0.0609 0.23242,0.11524 0.78345,0.40596 1.90836,1.02582 3.2539,1.79492 2.6911,1.5382 6.28258,3.67886 10.0879,6.0332 l 10.45703,6.4707 c -1.44543,-0.44739 -2.73928,-0.17594 -4.01758,0.25782 -2.58306,0.87648 -5.6763,2.70906 -10.57813,5.8125 -2.55364,1.61678 -5.05323,3.09311 -6.97265,4.14062 -0.95972,0.52376 -1.78087,0.94234 -2.34766,1.20313 -0.0729,0.0335 -0.0923,0.0383 -0.15625,0.0664 -0.0455,-0.0202 -0.0555,-0.0219 -0.10547,-0.0449 -0.53457,-0.24638 -1.31457,-0.64751 -2.22656,-1.15234 -1.82397,-1.00967 -4.19559,-2.4379 -6.60938,-4.00586 -5.57981,-3.62463 -8.50641,-5.54991 -10.93359,-6.49219 -0.98547,-0.38258 -2.12296,-0.53172 -3.2832,-0.30078 l 9.625,-5.95508 c 3.80532,-2.35434 7.39484,-4.495 10.08594,-6.0332 1.34555,-0.7691 2.47045,-1.38896 3.2539,-1.79492 0.10543,-0.0546 0.14184,-0.0687 0.23438,-0.11524 z m 24.65234,14.79883 1.49805,0.92578 v 0.26172 c -0.39491,-0.50007 -0.9045,-0.86809 -1.49805,-1.1875 z m -50.50195,0.73828 c -0.11605,0.16051 -0.20884,0.30707 -0.30078,0.46094 v -0.27344 z m 52,5.67383 v 11.21484 16.6875 l -11.38086,6.92188 c -3.52038,2.14113 -6.89536,4.23578 -9.50781,5.89258 -0.56982,0.36137 -0.93815,0.60576 -1.42969,0.92187 0.67611,-0.85272 1.03424,-1.82024 1.1875,-2.78906 0.3727,-2.35602 0.33008,-5.7286 0.33008,-12.56055 v -12.3125 l 9.84375,-6.0625 c 3.96971,-2.44502 6.77547,-4.29791 8.67968,-5.79101 0.94624,-0.74195 1.66694,-1.37167 2.27735,-2.12305 z m -52.30078,0.0488 c 0.39485,0.55363 0.84816,1.04419 1.37695,1.5 1.78046,1.53471 4.55591,3.27778 9.5332,6.34961 l 9.89453,6.10546 0.0137,6.80469 c 0.01,4.65567 0.12066,11.03292 0.25195,14.31836 0.10917,2.73187 -0.0338,4.12418 0.78906,5.94727 0.0113,0.025 0.0462,0.049 0.0586,0.0742 -0.0793,-0.0483 -0.19143,-0.1262 -0.26757,-0.17188 -0.40598,-0.24357 -0.75978,-0.4472 -1.0918,-0.61914 -0.16601,-0.086 -0.32167,-0.16382 -0.52539,-0.24805 -0.20373,-0.0842 -0.23082,-0.26562 -1.25977,-0.26562 1.30524,0 0.97585,0.17764 1.02149,0.19726 0.0456,0.0196 0.0118,0.006 -0.043,-0.0215 -0.10953,-0.0557 -0.32691,-0.17369 -0.60547,-0.33008 -0.55712,-0.31277 -1.3735,-0.7884 -2.36328,-1.37695 -1.97957,-1.1771 -4.66543,-2.81234 -7.55859,-4.61133 l -9.22461,-5.73633 v -16.72851 z m -10.50196,9.04101 0.0312,2.44727 0.29102,22.18359 9.03711,5.74805 h 0.002 l 8.26172,5.2539 c 7.90839,5.02959 12.56965,7.89661 15.7793,9.38672 1.60482,0.74506 2.85323,1.23128 4.37304,1.20899 1.51982,-0.0223 3.19131,-1.14154 3.84375,-2.19727 -0.34585,0.55951 0.64988,-0.46071 0.99805,-0.59961 0.79017,-0.31518 1.17266,-0.57944 2.09766,-1.10742 0.92499,-0.52798 2.12478,-1.23242 3.52929,-2.07031 2.80903,-1.67579 6.4329,-3.88282 10.20899,-6.22852 l 15.02734,-9.33593 0.0117,-22.60938 v -1.53125 c 0.0597,0.0748 0.13184,0.18414 0.18555,0.24414 0.2378,0.26568 0.4474,0.45558 0.68945,0.66602 0.4841,0.42088 1.08142,0.88522 1.83008,1.4414 1.49731,1.11237 3.57453,2.5596 6.08008,4.2461 5.0111,3.373 11.71896,7.68654 18.62304,11.93164 1.52802,0.93953 2.75028,1.74979 3.89649,2.51172 -1.48593,0.98257 -3.29057,2.14589 -5.40235,3.4414 -27.66108,16.96923 -40.01279,24.65314 -50.66796,31.51953 -3.22582,2.0788 -6.34938,3.97178 -8.73829,5.32227 -1.19445,0.67524 -2.21026,1.21754 -2.92187,1.5625 -0.11499,0.0557 -0.1562,0.0684 -0.25391,0.11328 -0.38558,-0.19265 -0.84541,-0.42668 -1.48828,-0.7793 -1.51911,-0.83323 -3.66249,-2.0667 -6.24023,-3.59179 -5.15548,-3.0502 -12.06638,-7.27518 -19.46094,-11.91993 -14.83145,-9.31614 -30.86206,-19.30961 -35.72266,-22.26953 -2.07511,-1.26367 -3.82814,-2.38913 -5.29687,-3.35547 0.35571,-0.23543 0.54732,-0.37247 0.95508,-0.63867 2.60956,-1.7036 6.23093,-4.00357 10.20898,-6.46875 4.01117,-2.4857 7.95745,-4.98935 11.09766,-7.03125 3.14021,-2.04189 5.28496,-3.45452 6.40625,-4.36914 1.15896,-0.94535 2.10501,-1.5205 2.72851,-3.125 z m 36.48828,1.41406 c 0.0759,0.003 0.0625,0.0299 0.15039,0.0293 0.0763,-5.8e-4 0.062,-0.0225 0.12891,-0.0254 l -0.13867,0.084 z m -75.48046,19.42774 c -0.0477,0.19845 -0.12016,0.27581 -0.13868,0.5957 -0.10272,1.76556 0.51133,1.8427 0.69336,2.0625 0.15555,0.18782 0.25439,0.27548 0.35547,0.36719 -0.13848,-0.0501 -0.14104,-0.11328 -0.625,-0.11328 -1.05324,0 -1.81891,0.58221 -2.16211,0.95508 -0.19595,0.21289 -0.23117,0.332 -0.31836,0.48437 0.009,-0.11574 0.002,-0.29247 0.0117,-0.4043 0.084,-0.95683 0.19363,-1.77072 0.30274,-2.30468 0.0364,-0.17837 0.0851,-0.26702 0.13086,-0.37305 0.27483,-0.21709 0.69278,-0.52824 1.21679,-0.9043 0.12996,-0.0933 0.39037,-0.26412 0.53321,-0.36523 z m 151.33593,0.041 c 0.1303,0.0925 0.3689,0.25204 0.4883,0.3379 0.5237,0.37666 0.9418,0.69084 1.2168,0.9082 3e-4,2.2e-4 0,-2.3e-4 0,0 0.046,0.10489 0.091,0.18922 0.127,0.36328 0.1089,0.53197 0.2188,1.34501 0.3027,2.30078 0.028,0.31858 0.012,0.80367 0.035,1.15234 -0.6287,-0.86186 -1.9354,-1.57021 -2.9571,-1.59765 -0.3957,-0.0106 -0.6367,0.14076 -0.9687,0.18945 0.013,-0.009 0.036,-0.0239 0.049,-0.0332 0.2576,-0.19229 0.4715,-0.35653 0.6992,-0.5586 0.1139,-0.10103 0.2283,-0.20202 0.4024,-0.40429 0.174,-0.20228 0.7086,-0.19414 0.7363,-1.89063 v -0.0234 -0.0234 c 0,-0.37709 -0.082,-0.49501 -0.1328,-0.72071 z m -2.5742,10.10938 c 0.01,0.75873 0.033,1.19852 0.033,2.34961 v 5.34375 l -7.37306,4.44726 c -4.84261,2.92136 -11.00802,6.75924 -13.84375,8.62305 -2.55217,1.67744 -14.9762,9.35628 -27.25,16.82422 -6.13027,3.72994 -11.80719,7.12144 -15.99805,9.57227 -1.5146,0.88575 -2.56369,1.47902 -3.63672,2.08789 -0.0271,-0.64903 -0.0933,-1.11849 -0.082,-1.86719 l 0.0723,-4.75 5.86328,-3.79297 c 5.93352,-3.83715 17.37653,-11.0487 27.36719,-17.28711 4.99533,-3.1192 9.63264,-5.99787 13.03906,-8.0918 1.70321,-1.04696 3.09941,-1.89868 4.07031,-2.48046 0.48545,-0.2909 0.86636,-0.51657 1.10742,-0.6543 0.11454,-0.0654 0.1946,-0.10827 0.21875,-0.1211 0.002,-9.4e-4 0.003,-5.7e-4 -0.0547,0.0254 -0.0353,0.0158 -0.0839,0.0394 -0.20117,0.0801 -0.11724,0.0407 -0.18494,0.15235 -0.91797,0.15235 1.29395,0 1.07538,-0.18325 1.17382,-0.25782 -1.7e-4,7e-5 0.004,-0.002 0.004,-0.002 0.005,-0.004 0.057,-0.0104 0.0644,-0.0137 0.14357,-0.0638 0.23876,-0.11368 0.3418,-0.16797 0.20608,-0.10858 0.42346,-0.23228 0.68555,-0.38476 0.52418,-0.30498 1.21239,-0.72029 2.04297,-1.23243 1.66115,-1.02428 3.87602,-2.42454 6.26367,-3.96484 3.04352,-1.9634 5.27872,-3.43136 6.8145,-4.34375 0.084,-0.05 0.1142,-0.0485 0.1953,-0.0937 z m -146.17775,0.0977 c 1.55683,0.91075 3.38324,2.00087 5.44727,3.2832 33.99752,21.12196 50.59355,31.49877 56.70898,35.45508 l 5.86523,3.79492 0.0703,4.75 c 0.0156,1.04257 -0.0522,1.35522 -0.084,2.05859 -1.84368,-1.04407 -4.64535,-2.70278 -8.76562,-5.19726 -8.3248,-5.03997 -21.90831,-13.4151 -43.43164,-26.74805 l -15.90039,-9.84961 v -5.22266 c 0,-0.92062 0.0575,-1.53738 0.0898,-2.32421 z m 74.57227,2.98242 c -0.43298,0.2857 -0.83863,0.56039 -1.17579,0.83008 -0.0845,-0.0442 -0.64846,-0.39392 -1.14062,-0.67774 0.50488,0.0135 1.07292,0.0738 1.45508,0.0195 0.21309,-0.0303 0.54529,-0.10186 0.86133,-0.17187 z m -3.27344,34.88086 c 0.16072,0.074 0.32228,0.15249 0.48633,0.21679 0.26155,0.10253 0.30297,0.28321 1.34961,0.28321 0.86841,0 1.06896,-0.1612 1.375,-0.29688 l -1.44922,0.93555 z m 1.68164,16.13476 c 0.0935,0.28459 0.18675,0.57504 0.47461,0.9961 0.31725,0.46406 1.11903,1.36914 2.53125,1.36914 0.13366,0 0.082,-0.0229 0.17773,-0.0293 -0.77801,0.46316 -1.69885,1.01494 -2.24414,1.33398 -0.20165,0.11799 -0.30688,0.17564 -0.47265,0.27149 -0.22016,-0.10658 -0.35469,-0.16207 -0.64649,-0.3125 -0.64798,-0.33405 -1.78386,-0.98061 -2.72266,-1.5 1.07652,-0.132 2.19533,-0.76559 2.64844,-1.44531 0.16735,-0.25104 0.15221,-0.45318 0.25391,-0.6836 z m 1.05273,4.14649 c 0.18348,0.0473 0.1833,0.16575 0.2168,0.17578 0.067,0.0201 -0.015,-0.005 -0.14063,-0.0586 -0.0376,-0.0161 -0.14842,-0.0746 -0.19531,-0.0957 0.0196,0.003 0.10268,-0.0257 0.11914,-0.0215 z"
         id="path1152" />
    </g>
  </g>
</svg>
